<?xml version="1.0" ?>
<svg style="enable-background:new 0 0 50 50;" id="Layer_1" version="1.1" viewBox="0 0 50 50" xmlns="http://www.w3.org/2000/svg"
     xml:space="preserve"><style type="text/css">
	.st0{fill:#F0C4DB;}
	.st1{fill:#FF9D9C;}
	.st2{fill:#9BEAF9;}
	.st3{fill:#E9F4BC;}
	.st4{fill:#505050;}
	.st5{fill:#FEBECC;}
	.st6{fill:#FFFFFF;}
	.st7{fill:#FDE4A1;}
	.st8{fill:#FEE7B5;}
	.st9{fill:#CDF6FC;}
	.st10{fill:#F2C6DD;}
	.st11{opacity:0.1;}
</style><g><path class="st0" d="M1.23,48.05h29.18c0-11.6-9.4-21-21-21c-2.9,0-5.67,0.59-8.18,1.65V48.05z"/><g><polyline class="st6" points="43.33,33.14 48.02,33.14 48.02,2.7 2.02,2.7 2.02,33.14 26.58,33.14   "/><polyline class="st7" points="38.05,38.53 38.05,46.16 34.96,42.93 31.86,46.16 31.86,38.53   "/><path class="st2" d="M42.02,5.7h-34c0,1.66-1.34,3-3,3v18.44c1.66,0,3,1.34,3,3h18.06c0.03-4.87,4-8.83,8.88-8.83    c3.99,0,7.38,2.65,8.49,6.28c0.46-0.28,0.99-0.46,1.57-0.46V8.7C43.36,8.7,42.02,7.36,42.02,5.7z"/><circle class="st1" cx="34.96" cy="30.2" r="8.88"/><polygon class="st6" points="34.96,25.35 36.16,29.06 40.06,29.06 36.9,31.35 38.11,35.05 34.96,32.76 31.8,35.05 33.01,31.35     29.85,29.06 33.75,29.06   "/><g><path class="st4" d="M48.02,1.95h-46c-0.41,0-0.75,0.34-0.75,0.75v30.44c0,0.41,0.34,0.75,0.75,0.75h24.04     c0.96,2.29,2.77,4.14,5.05,5.13v7.14c0,0.31,0.19,0.58,0.47,0.7c0.29,0.11,0.61,0.04,0.82-0.18l2.55-2.67l2.55,2.67     c0.14,0.15,0.34,0.23,0.54,0.23c0.09,0,0.19-0.02,0.28-0.05c0.28-0.11,0.47-0.39,0.47-0.7v-7.14c2.27-0.99,4.09-2.84,5.05-5.13     h4.17c0.41,0,0.75-0.34,0.75-0.75V2.7C48.77,2.29,48.43,1.95,48.02,1.95z M37.3,44.3l-1.8-1.88c-0.28-0.29-0.8-0.29-1.08,0     l-1.8,1.88v-4.77c0.75,0.19,1.54,0.3,2.35,0.3s1.59-0.11,2.35-0.3V44.3z M34.96,38.33c-4.48,0-8.13-3.65-8.13-8.13     s3.65-8.13,8.13-8.13s8.13,3.65,8.13,8.13S39.44,38.33,34.96,38.33z M47.27,32.39h-2.94c0.17-0.71,0.26-1.44,0.26-2.19     c0-0.75-0.1-1.48-0.26-2.18c0.22-0.08,0.45-0.13,0.69-0.13c0.2,0,0.39-0.08,0.53-0.22c0.15-0.14,0.22-0.33,0.22-0.53V8.7     c0-0.2-0.07-0.39-0.22-0.53c-0.14-0.14-0.33-0.22-0.53-0.22c-1.23,0-2.24-1.01-2.25-2.25c0-0.2-0.07-0.39-0.22-0.53     c-0.14-0.14-0.33-0.22-0.53-0.22H30.83c-0.41,0-0.75,0.34-0.75,0.75s0.34,0.75,0.75,0.75h10.51c0.3,1.46,1.46,2.63,2.92,2.93     v17.09c-0.13,0.03-0.26,0.08-0.39,0.12c-1.43-3.53-4.89-6.02-8.92-6.02c-5.04,0-9.18,3.89-9.59,8.82H8.69     c-0.3-1.46-1.47-2.63-2.93-2.92V9.38c1.46-0.3,2.63-1.47,2.93-2.93h18.14c0.41,0,0.75-0.34,0.75-0.75s-0.34-0.75-0.75-0.75H8.01     c-0.19,0-0.39,0.08-0.53,0.22C7.34,5.31,7.26,5.5,7.26,5.7c0,1.24-1.01,2.25-2.25,2.25c-0.19,0-0.39,0.08-0.53,0.22     C4.34,8.31,4.26,8.5,4.26,8.7v18.44c0,0.2,0.08,0.39,0.22,0.53c0.14,0.14,0.34,0.22,0.53,0.22c1.24,0,2.25,1.01,2.25,2.25     c0,0.2,0.08,0.4,0.22,0.53c0.14,0.14,0.34,0.22,0.53,0.22h17.34c0.04,0.51,0.11,1.01,0.23,1.5H2.77V3.45h44.5V32.39z"/><path class="st4" d="M7.88,13.11c0,0.41,0.34,0.75,0.75,0.75h32.78c0.41,0,0.75-0.34,0.75-0.75s-0.34-0.75-0.75-0.75H8.63     C8.21,12.36,7.88,12.69,7.88,13.11z"/><path class="st4" d="M41.41,17.51H8.63c-0.41,0-0.75,0.34-0.75,0.75s0.34,0.75,0.75,0.75h32.78c0.41,0,0.75-0.34,0.75-0.75     S41.82,17.51,41.41,17.51z"/><path class="st4" d="M23.02,22.66H8.63c-0.41,0-0.75,0.34-0.75,0.75s0.34,0.75,0.75,0.75h14.39c0.41,0,0.75-0.34,0.75-0.75     S23.43,22.66,23.02,22.66z"/><path class="st4" d="M40.77,28.82c-0.1-0.31-0.39-0.52-0.71-0.52H36.7l-1.04-3.19c-0.1-0.31-0.39-0.52-0.71-0.52     s-0.61,0.21-0.71,0.52l-1.04,3.19h-3.35c-0.33,0-0.61,0.21-0.71,0.52c-0.1,0.31,0.01,0.65,0.27,0.84l2.71,1.97l-1.04,3.19     c-0.1,0.31,0.01,0.65,0.27,0.84c0.13,0.1,0.29,0.14,0.44,0.14s0.31-0.05,0.44-0.14l2.71-1.97l2.71,1.97     c0.26,0.19,0.62,0.19,0.88,0c0.26-0.19,0.37-0.53,0.27-0.84l-1.04-3.19l2.71-1.97C40.76,29.47,40.87,29.13,40.77,28.82z      M36.46,30.74c-0.26,0.19-0.37,0.53-0.27,0.84l0.49,1.51l-1.29-0.93c-0.26-0.19-0.62-0.19-0.88,0l-1.29,0.93l0.49-1.51     c0.1-0.31-0.01-0.65-0.27-0.84l-1.29-0.93h1.59c0.33,0,0.61-0.21,0.71-0.52l0.49-1.51l0.49,1.51c0.1,0.31,0.39,0.52,0.71,0.52     h1.59L36.46,30.74z"/><circle class="st4" cx="28.83" cy="5.7" r="0.75"/></g></g></g></svg>